<?xml version="1.0" encoding="UTF-8" standalone="no"?>
<!-- Created with Inkscape (http://www.inkscape.org/) -->

<svg
   xmlns:dc="http://purl.org/dc/elements/1.1/"
   xmlns:cc="http://creativecommons.org/ns#"
   xmlns:rdf="http://www.w3.org/1999/02/22-rdf-syntax-ns#"
   xmlns:svg="http://www.w3.org/2000/svg"
   xmlns="http://www.w3.org/2000/svg"
   xmlns:sodipodi="http://sodipodi.sourceforge.net/DTD/sodipodi-0.dtd"
   xmlns:inkscape="http://www.inkscape.org/namespaces/inkscape"
   id="svg2816"
   version="1.1"
   inkscape:version="0.47 r22583"
   width="690"
   height="688"
   sodipodi:docname="hsk.svg">
  <metadata
     id="metadata2822">
    <rdf:RDF>
      <cc:Work
         rdf:about="">
        <dc:format>image/svg+xml</dc:format>
        <dc:type
           rdf:resource="http://purl.org/dc/dcmitype/StillImage" />
      </cc:Work>
    </rdf:RDF>
  </metadata>
  <defs
     id="defs2820">
    <inkscape:path-effect
       effect="spiro"
       id="path-effect2894"
       is_visible="true" />
    <inkscape:path-effect
       effect="spiro"
       id="path-effect2890"
       is_visible="true" />
    <inkscape:path-effect
       effect="spiro"
       id="path-effect2886"
       is_visible="true" />
    <inkscape:path-effect
       effect="spiro"
       id="path-effect2882"
       is_visible="true" />
    <inkscape:path-effect
       effect="spiro"
       id="path-effect2878"
       is_visible="true" />
    <inkscape:path-effect
       effect="spiro"
       id="path-effect2874"
       is_visible="true" />
    <inkscape:path-effect
       effect="spiro"
       id="path-effect2870"
       is_visible="true" />
    <inkscape:path-effect
       effect="spiro"
       id="path-effect2866"
       is_visible="true" />
    <inkscape:path-effect
       effect="spiro"
       id="path-effect2862"
       is_visible="true" />
    <inkscape:path-effect
       effect="spiro"
       id="path-effect2858"
       is_visible="true" />
    <inkscape:path-effect
       effect="spiro"
       id="path-effect2854"
       is_visible="true" />
    <inkscape:path-effect
       effect="spiro"
       id="path-effect2850"
       is_visible="true" />
    <inkscape:path-effect
       effect="spiro"
       id="path-effect2846"
       is_visible="true" />
    <inkscape:path-effect
       effect="spiro"
       id="path-effect2842"
       is_visible="true" />
    <inkscape:path-effect
       effect="spiro"
       id="path-effect2838"
       is_visible="true" />
    <inkscape:path-effect
       effect="spiro"
       id="path-effect2834"
       is_visible="true" />
    <inkscape:path-effect
       effect="spiro"
       id="path-effect2830"
       is_visible="true" />
    <inkscape:perspective
       sodipodi:type="inkscape:persp3d"
       inkscape:vp_x="0 : 0.5 : 1"
       inkscape:vp_y="0 : 1000 : 0"
       inkscape:vp_z="1 : 0.5 : 1"
       inkscape:persp3d-origin="0.5 : 0.33333333 : 1"
       id="perspective2824" />
  </defs>
  <sodipodi:namedview
     pagecolor="#ffffff"
     bordercolor="#666666"
     borderopacity="1"
     objecttolerance="10"
     gridtolerance="10"
     guidetolerance="10"
     inkscape:pageopacity="0"
     inkscape:pageshadow="2"
     inkscape:window-width="1920"
     inkscape:window-height="1018"
     id="namedview2818"
     showgrid="false"
     inkscape:zoom="1.04"
     inkscape:cx="325.37537"
     inkscape:cy="319.74453"
     inkscape:window-x="-8"
     inkscape:window-y="-8"
     inkscape:window-maximized="1"
     inkscape:current-layer="svg2816" />
  <path
     style="fill:none;stroke:#000000;stroke-width:8.09999999999999790;stroke-linecap:round;stroke-linejoin:round;stroke-opacity:1;stroke-miterlimit:4;stroke-dasharray:none;"
     d="m 2.8846154,167.80769 143.2692346,41.34616 43.26923,-28.84616 36.53846,-19.23077 59.61538,-15.38461 27.88462,-12.5 c 15.68836,-1.76157 31.39456,-3.36424 47.11538,-4.80769 15.69163,-1.44077 31.39783,-2.72291 47.11539,-3.84616 l 23.07692,0 20.19231,0 20.19231,19.23077 5.76923,9.61539 18.26923,17.30769 46.15384,-27.88462 c 23.36092,-19.21274 46.44113,-38.7668 69.23077,-58.653844 27.01624,-23.575318 53.62412,-47.618586 79.8077,-72.115384"
     id="path2828"
     inkscape:path-effect="#path-effect2830"
     inkscape:original-d="m 2.8846154,167.80769 143.2692346,41.34616 43.26923,-28.84616 36.53846,-19.23077 59.61538,-15.38461 27.88462,-12.5 47.11538,-4.80769 47.11539,-3.84616 23.07692,0 20.19231,0 20.19231,19.23077 5.76923,9.61539 18.26923,17.30769 46.15384,-27.88462 69.23077,-58.653844 79.8077,-72.115384" />
  <path
     style="fill:none;stroke:#000000;stroke-width:8.09999999999999790;stroke-linecap:round;stroke-linejoin:round;stroke-opacity:1;stroke-miterlimit:4;stroke-dasharray:none;"
     d="m 0,395.69231 51.923077,12.5 45.192308,15.38461 20.192305,10.57693 0.96154,14.42307 8.65385,18.26923 21.15384,14.42308 L 167.30769,488 182.69231,473.57692 187.5,500.5 l 12.5,21.15385 19.23077,18.26923 32.69231,-6.73077 16.34615,21.15384 23.07692,12.5 25.96154,-10.57692 25,11.53846 L 375,554.34615 l 15.38462,-15.38461 39.42307,-11.53846 6.73077,-11.53846 47.11539,-13.46154 7.6923,-15.38462 29.8077,-7.69231 17.30769,-15.38461 4.80769,-11.53846 22.11539,-7.69231 25,-31.73077 1.92307,-34.61538 16.34616,-8.65385 10.57692,-18.26923 3.84615,-11.53846 20.19231,-18.26923 47.11539,-32.69231"
     id="path2832"
     inkscape:path-effect="#path-effect2834"
     inkscape:original-d="m 0,395.69231 51.923077,12.5 45.192308,15.38461 20.192305,10.57693 0.96154,14.42307 8.65385,18.26923 21.15384,14.42308 L 167.30769,488 182.69231,473.57692 187.5,500.5 l 12.5,21.15385 19.23077,18.26923 32.69231,-6.73077 16.34615,21.15384 23.07692,12.5 25.96154,-10.57692 25,11.53846 L 375,554.34615 l 15.38462,-15.38461 39.42307,-11.53846 6.73077,-11.53846 47.11539,-13.46154 7.6923,-15.38462 29.8077,-7.69231 17.30769,-15.38461 4.80769,-11.53846 22.11539,-7.69231 25,-31.73077 1.92307,-34.61538 16.34616,-8.65385 10.57692,-18.26923 3.84615,-11.53846 20.19231,-18.26923 47.11539,-32.69231" />
  <path
     style="fill:none;stroke:#000000;stroke-width:8.09999999999999790;stroke-linecap:round;stroke-linejoin:round;stroke-opacity:1;stroke-miterlimit:4;stroke-dasharray:none;"
     d="m 496.15385,169.73077 -40.38462,8.65385 -32.69231,-4.8077 c -11.8983,-3.05718 -23.7585,-6.26264 -35.57692,-9.61538 -11.9026,-3.37662 -23.76282,-6.90263 -35.57692,-10.57692 l -30.76923,1.92307 -23.07693,24.03846 c -11.35441,15.52152 -22.89396,30.90759 -34.61538,46.15385 -9.18377,11.94549 -18.47919,23.80516 -27.88462,35.57692 l 0,31.73077 -3.84615,27.88462 -14.42308,50 3.84616,17.30769 35.57692,4.80769 29.80769,-25 30.76923,-51.92307 0,-21.15385 18.26923,-10.57692 18.26923,-15.38462 11.53847,0.96154 44.23076,27.88461 c 15.89618,5.9282 31.61109,12.34245 47.11539,19.23077 12.31719,5.47234 24.50147,11.24384 36.53846,17.3077 L 525,357.23077 l 49.03846,23.07692 17.30769,0"
     id="path2836"
     inkscape:path-effect="#path-effect2838"
     inkscape:original-d="m 496.15385,169.73077 -40.38462,8.65385 -32.69231,-4.8077 -35.57692,-9.61538 -35.57692,-10.57692 -30.76923,1.92307 -23.07693,24.03846 -34.61538,46.15385 -27.88462,35.57692 0,31.73077 -3.84615,27.88462 -14.42308,50 3.84616,17.30769 35.57692,4.80769 29.80769,-25 30.76923,-51.92307 0,-21.15385 18.26923,-10.57692 18.26923,-15.38462 11.53847,0.96154 44.23076,27.88461 47.11539,19.23077 36.53846,17.3077 31.73077,23.07692 49.03846,23.07692 17.30769,0" />
  <path
     style="fill:none;stroke:#000000;stroke-width:8.09999999999999790;stroke-linecap:round;stroke-linejoin:round;stroke-opacity:1;stroke-miterlimit:4;stroke-dasharray:none;"
     d="m 448.07692,405.30769 34.61539,25.96154 45.19231,18.26923 16.34615,2.88462"
     id="path2840"
     inkscape:path-effect="#path-effect2842"
     inkscape:original-d="m 448.07692,405.30769 34.61539,25.96154 45.19231,18.26923 16.34615,2.88462" />
  <path
     style="fill:none;stroke:#000000;stroke-width:8.09999999999999790;stroke-linecap:round;stroke-linejoin:round;stroke-opacity:1;stroke-miterlimit:4;stroke-dasharray:none;"
     d="m 422.11538,465.88462 23.07693,6.73076 25,13.46154 20.19231,0.96154"
     id="path2844"
     inkscape:path-effect="#path-effect2846"
     inkscape:original-d="m 422.11538,465.88462 23.07693,6.73076 25,13.46154 20.19231,0.96154" />
  <path
     style="fill:none;stroke:#000000;stroke-width:8.09999999999999790;stroke-linecap:round;stroke-linejoin:round;stroke-opacity:1;stroke-miterlimit:4;stroke-dasharray:none;"
     d="m 399.03846,506.26923 22.11539,11.53846 13.46153,0.96154"
     id="path2848"
     inkscape:path-effect="#path-effect2850"
     inkscape:original-d="m 399.03846,506.26923 22.11539,11.53846 13.46153,0.96154" />
  <path
     style="fill:none;stroke:#000000;stroke-width:8.09999999999999790;stroke-linecap:round;stroke-linejoin:round;stroke-opacity:1;stroke-miterlimit:4;stroke-dasharray:none;"
     d="m 117.62449,435.75325 c 8.51361,4.04868 17.01257,8.12818 25.49664,12.23839 13.63696,6.60659 27.23547,13.29252 40.79462,20.05736 l 21.75714,5.43928 10.19865,-14.61807 20.39731,-7.81897 26.85646,4.41941 19.37745,11.89844 6.45915,15.97789 -10.87857,17.67767 15.97789,-12.23839 15.63794,-4.75937 15.63794,1.69978 26.85646,17.33771 1.69978,10.19866 11.55847,-6.45915 13.93816,2.37968 9.85871,13.25826 -2.37969,19.7174"
     id="path2852"
     inkscape:path-effect="#path-effect2854"
     inkscape:original-d="m 117.62449,435.75325 25.49664,12.23839 40.79462,20.05736 21.75714,5.43928 10.19865,-14.61807 20.39731,-7.81897 26.85646,4.41941 19.37745,11.89844 6.45915,15.97789 -10.87857,17.67767 15.97789,-12.23839 15.63794,-4.75937 15.63794,1.69978 26.85646,17.33771 1.69978,10.19866 11.55847,-6.45915 13.93816,2.37968 9.85871,13.25826 -2.37969,19.7174" />
  <path
     style="fill:none;stroke:#000000;stroke-width:8.09999999999999790;stroke-linecap:round;stroke-linejoin:round;stroke-opacity:1;stroke-miterlimit:4;stroke-dasharray:none;"
     d="m 227.76997,479.94743 22.43705,2.03973 22.77699,4.75937 3.39955,2.71964 -21.75713,21.75713 -10.53861,3.39956 -10.53861,-5.09933 -4.41942,-7.47902 -1.35982,-22.09708"
     id="path2856"
     inkscape:path-effect="#path-effect2858"
     inkscape:original-d="m 227.76997,479.94743 22.43705,2.03973 22.77699,4.75937 3.39955,2.71964 -21.75713,21.75713 -10.53861,3.39956 -10.53861,-5.09933 -4.41942,-7.47902 -1.35982,-22.09708 z" />
  <path
     style="fill:none;stroke:#000000;stroke-width:8.09999999999999790;stroke-linecap:round;stroke-linejoin:round;stroke-opacity:1;stroke-miterlimit:4;stroke-dasharray:none;"
     d="m 295.42105,520.40209 11.55848,-10.87856 15.63794,12.9183 19.7174,7.47901 -25.83659,11.89843 -16.65781,-5.09933 -7.81897,-5.09932 3.39955,-11.21853"
     id="path2860"
     inkscape:path-effect="#path-effect2862"
     inkscape:original-d="m 295.42105,520.40209 11.55848,-10.87856 15.63794,12.9183 19.7174,7.47901 -25.83659,11.89843 -16.65781,-5.09933 -7.81897,-5.09932 3.39955,-11.21853 z" />
  <path
     style="fill:none;stroke:#000000;stroke-width:8.09999999999999790;stroke-linecap:round;stroke-linejoin:round;stroke-opacity:1;stroke-miterlimit:4;stroke-dasharray:none;"
     d="M 253.60657,533.32039 278.4233,501.02465"
     id="path2864"
     inkscape:path-effect="#path-effect2866"
     inkscape:original-d="M 253.60657,533.32039 278.4233,501.02465" />
  <path
     style="fill:none;stroke:#000000;stroke-width:8.09999999999999790;stroke-linecap:round;stroke-linejoin:round;stroke-opacity:1;stroke-miterlimit:4;stroke-dasharray:none;"
     d="m 372.93084,547.93846 -20.73727,2.71965 -10.19866,-8.15893 0.67992,-2.37968 11.21852,-12.23839 7.81897,11.21852 11.21852,8.83883"
     id="path2868"
     inkscape:path-effect="#path-effect2870"
     inkscape:original-d="m 372.93084,547.93846 -20.73727,2.71965 -10.19866,-8.15893 0.67992,-2.37968 11.21852,-12.23839 7.81897,11.21852 11.21852,8.83883 z" />
  <path
     style="fill:none;stroke:#000000;stroke-width:8.09999999999999790;stroke-linecap:round;stroke-linejoin:round;stroke-opacity:1;stroke-miterlimit:4;stroke-dasharray:none;"
     d="m 317.8581,556.09739 14.95802,-12.57834 10.87857,-7.47902 9.17879,-9.8587 1.01987,-12.91829 -0.33996,0.33995"
     id="path2872"
     inkscape:path-effect="#path-effect2874"
     inkscape:original-d="m 317.8581,556.09739 14.95802,-12.57834 10.87857,-7.47902 9.17879,-9.8587 1.01987,-12.91829 -0.33996,0.33995" />
  <path
     style="fill:none;stroke:#000000;stroke-width:8.09999999999999790;stroke-linecap:round;stroke-linejoin:round;stroke-opacity:1;stroke-miterlimit:4;stroke-dasharray:none;"
     d="m 252.16346,363.96154 8.41346,-23.55769 -4.32692,-15.14423 -8.65385,-3.60577 -10.57692,-1.44231 -6.00961,11.53846 -12.5,41.58654 8.17307,1.68269 7.69231,-1.92308 8.17308,-2.64423 9.61538,-6.49038"
     id="path2876"
     inkscape:path-effect="#path-effect2878"
     inkscape:original-d="m 252.16346,363.96154 8.41346,-23.55769 -4.32692,-15.14423 -8.65385,-3.60577 -10.57692,-1.44231 -6.00961,11.53846 -12.5,41.58654 8.17307,1.68269 7.69231,-1.92308 8.17308,-2.64423 9.61538,-6.49038 z" />
  <path
     style="fill:none;stroke:#000000;stroke-width:8.09999999999999790;stroke-linecap:round;stroke-linejoin:round;stroke-opacity:1;stroke-miterlimit:4;stroke-dasharray:none;"
     d="m 362.74038,268.04808 -1.4423,-8.41347 c -2.91758,-4.43853 -5.88255,-8.84592 -8.89423,-13.22115 -2.21834,-3.2227 -4.46202,-6.42796 -6.73077,-9.61538 l 0.96154,-14.42308 0.48076,0.24038"
     id="path2880"
     inkscape:path-effect="#path-effect2882"
     inkscape:original-d="m 362.74038,268.04808 -1.4423,-8.41347 -8.89423,-13.22115 -6.73077,-9.61538 0.96154,-14.42308 0.48076,0.24038" />
  <path
     style="fill:none;stroke:#000000;stroke-width:8.09999999999999790;stroke-linecap:round;stroke-linejoin:round;stroke-opacity:1;stroke-miterlimit:4;stroke-dasharray:none;"
     d="M 316.82692,294.97115 312.01923,288.24038 298.07692,281.75"
     id="path2884"
     inkscape:path-effect="#path-effect2886"
     inkscape:original-d="M 316.82692,294.97115 312.01923,288.24038 298.07692,281.75" />
  <path
     style="fill:none;stroke:#000000;stroke-width:8.09999999999999790;stroke-linecap:round;stroke-linejoin:round;stroke-opacity:1;stroke-miterlimit:4;stroke-dasharray:none;"
     d="m 621.63462,339.68269 -38.22116,-27.40384 1.68269,1.20192"
     id="path2888"
     inkscape:path-effect="#path-effect2890"
     inkscape:original-d="m 621.63462,339.68269 -38.22116,-27.40384 1.68269,1.20192" />
  <path
     style="fill:none;stroke:#000000;stroke-width:8.09999999999999790;stroke-linecap:round;stroke-linejoin:round;stroke-opacity:1;stroke-miterlimit:4;stroke-dasharray:none;"
     d="m 505.28846,338 30.52885,-16.34615 12.74038,-22.35577 3.60577,-29.08654 -10.09615,-29.08654 -17.30769,-25.96154 -25.24039,-19.95192"
     id="path2892"
     inkscape:path-effect="#path-effect2894"
     inkscape:original-d="m 505.28846,338 30.52885,-16.34615 12.74038,-22.35577 3.60577,-29.08654 -10.09615,-29.08654 -17.30769,-25.96154 -25.24039,-19.95192" />
</svg>
